<svg width="390" height="389" viewBox="0 0 390 389" fill="none" xmlns="http://www.w3.org/2000/svg">
<path d="M377.131 194.869L377.131 194.848V194.828V194.173C377.131 188.672 376.849 183.324 376.516 178.254L376.505 178.099L376.491 177.944C367.939 84.8522 289.789 12 194.631 12C114.125 12 45.8609 64.1071 21.5379 136.429C15.501 154.263 12.2106 173.2 12.0007 192.931L12 192.995V193.059V193.062V193.064V193.067V193.07V193.072V193.075V193.078V193.08V193.083V193.086V193.089V193.091V193.094V193.097V193.099V193.102V193.105V193.107V193.11V193.113V193.115V193.118V193.121V193.123V193.126V193.129V193.132V193.134V193.137V193.14V193.142V193.145V193.148V193.15V193.153V193.156V193.158V193.161V193.164V193.166V193.169V193.172V193.175V193.177V193.18V193.183V193.185V193.188V193.191V193.193V193.196V193.199V193.201V193.204V193.207V193.209V193.212V193.215V193.217V193.22V193.223V193.226V193.228V193.231V193.234V193.236V193.239V193.242V193.244V193.247V193.25V193.252V193.255V193.258V193.26V193.263V193.266V193.269V193.271V193.274V193.277V193.279V193.282V193.285V193.287V193.29V193.293V193.295V193.298V193.301V193.303V193.306V193.309V193.312V193.314V193.317V193.32V193.322V193.325V193.328V193.33V193.333V193.336V193.338V193.341V193.344V193.346V193.349V193.352V193.355V193.357V193.36V193.363V193.365V193.368V193.371V193.373V193.376V193.379V193.381V193.384V193.387V193.389V193.392V193.395V193.397V193.4V193.403V193.406V193.408V193.411V193.414V193.416V193.419V193.422V193.424V193.427V193.43V193.432V193.435V193.438V193.44V193.443V193.446V193.449V193.451V193.454V193.457V193.459V193.462V193.465V193.467V193.47V193.473V193.475V193.478V193.481V193.483V193.486V193.489V193.492V193.494V193.497V193.5V193.502V193.505V193.508V193.51V193.513V193.516V193.518V193.521V193.524V193.526V193.529V193.532V193.535V193.537V193.54V193.543V193.545V193.548V193.551V193.553V193.556V193.559V193.561V193.564V193.567V193.569V193.572V193.575V193.577V193.58V193.583V193.586V193.588V193.591V193.594V193.596V193.599V193.602V193.604V193.607V193.61V193.612V193.615V193.618V193.62V193.623V193.626V193.629V193.631V193.634V193.637V193.639V193.642V193.645V193.647V193.65V193.653V193.655V193.658V193.661V193.663V193.666V193.669V193.672V193.674V193.677V193.68V193.682V193.685V193.688V193.69V193.693V193.696V193.698V193.701V193.704V193.706V193.709V193.712V193.715V193.717V193.72V193.723V193.725V193.728V193.731V193.733V193.736V193.739V193.741V193.744V193.747V193.749V193.752V193.755V193.758V193.76V193.763V193.766V193.768V193.771V193.774V193.776V193.779V193.782V193.784V193.787V193.79V193.792V193.795V193.798V193.8V193.803V193.806V193.809V193.811V193.814V193.817V193.819V193.822V193.825V193.827V193.83V193.833V193.835V193.838V193.841V193.843V193.846V193.849V193.852V193.854V193.857V193.86V193.862V193.865V193.868V193.87V193.873V193.876V193.878V193.881V193.884V193.886V193.889V193.892V193.895V193.897V193.9V193.903V193.905V193.908V193.911V193.913V193.916V193.919V193.921V193.924V193.927V193.929V193.932V193.935V193.938V193.94V193.943V193.946V193.948V193.951V193.954V193.956V193.959V193.962V193.964V193.967V193.97V193.972V193.975V193.978V193.98V193.983V193.986V193.989V193.991V193.994V193.997V193.999V194.002V194.005V194.007V194.01V194.013V194.015V194.018V194.021V194.023V194.026V194.029V194.032V194.034V194.037V194.04V194.042V194.045V194.048V194.05V194.053V194.056V194.058V194.061V194.064V194.066V194.069V194.072V194.075V194.077V194.08V194.083V194.085V194.088V194.091V194.093V194.096V194.099V194.101V194.104V194.107V194.109V194.112V194.115V194.118V194.12V194.123V194.126V194.128V194.131V194.134V194.136V194.139V194.142V194.144V194.147V194.15V194.152V194.155V194.158V194.16V194.163V194.166V194.169V194.171V194.174V194.177V194.179V194.182V194.185V194.187V194.19V194.193V194.195V194.198V194.201V194.203V194.206V194.209V194.212V194.214V194.217V194.22V194.222V194.225V194.228V194.23V194.233V194.236V194.238V194.241V194.244V194.246V194.249V194.252V194.255V194.257V194.26V194.263V194.265V194.268V194.271V194.273V194.276V194.279V194.281V194.284V194.287V194.289V194.292V194.295V194.298V194.3V194.303V194.306V194.308V194.311V194.314V194.316V194.319V194.322V194.324V194.327V194.33V194.332V194.335V194.338V194.34V194.343V194.346V194.349V194.351V194.354V194.357V194.359V194.362V194.365V194.367V194.37V194.373V194.375V194.378V194.381V194.383V194.386V194.389V194.392V194.394V194.397V194.4V194.402V194.405V194.408V194.41V194.413V194.416V194.418V194.421V194.424V194.426V194.429V194.432L12 194.435L12 194.446C12.0701 268.488 56.1804 332.273 119.473 360.87C142.416 371.253 167.81 377 194.566 377C213.893 377 232.615 373.988 250.165 368.372C323.562 344.888 376.851 276.132 377.131 194.869Z" fill="white" stroke="#CCFF1B" stroke-width="24" stroke-miterlimit="10"/>
<path d="M142.426 300.548C140.92 301.268 139.413 301.923 137.579 302.054C136.859 302.12 136.859 301.137 137.579 301.072C139.217 301.006 140.527 300.351 141.771 299.762C142.492 299.434 143.147 300.22 142.426 300.548Z" fill="black"/>
<path d="M142.361 298.058C139.544 298.32 136.924 299.827 134.894 301.268C134.304 301.661 133.518 301.006 134.042 300.547C136.335 298.91 139.217 297.403 142.361 297.141C143.082 297.076 143.082 297.993 142.361 298.058Z" fill="black"/>
<path d="M163.321 291.441C161.553 291.965 159.784 292.62 158.147 293.406C157.557 293.734 156.902 292.882 157.557 292.555C159.26 291.703 161.094 291.048 162.994 290.459C163.78 290.328 164.042 291.179 163.321 291.441Z" fill="black"/>
<path d="M164.697 288.101C161.684 288.887 158.736 289.935 156.313 291.638C155.723 292.031 154.872 291.376 155.461 290.983C158.016 289.215 161.225 288.036 164.435 287.25C165.155 287.053 165.483 287.905 164.697 288.101Z" fill="black"/>
<path d="M170.33 149.697C170.134 149.894 169.872 150.09 169.61 150.287C166.793 152.383 161.946 153.562 158.147 153.365C157.885 153.365 157.623 153.3 157.361 153.3C156.64 153.234 156.64 152.317 157.361 152.317C157.492 152.317 157.557 152.317 157.688 152.317C161.684 152.645 166.924 151.4 169.544 148.977C169.675 148.911 169.741 148.846 169.872 148.846C170.265 148.846 170.723 149.304 170.33 149.697Z" fill="black"/>
<path d="M178.649 186.772C178.583 186.772 178.583 186.772 178.518 186.772C174.522 186.706 170.788 187.951 167.055 188.606C166.334 188.737 166.007 187.82 166.727 187.689C168.168 187.427 169.544 187.099 170.985 186.772C172.426 186.444 173.867 186.182 175.308 185.986C176.356 185.855 177.47 185.789 178.518 185.789C178.649 185.789 178.714 185.789 178.78 185.855C179.238 186.051 179.173 186.641 178.649 186.772Z" fill="black"/>
<path d="M182.448 182.972C182.448 183.168 182.317 183.365 182.055 183.43C181.203 183.627 180.352 183.561 179.5 183.496C177.339 183.234 175.046 182.513 173.147 183.168C170.133 184.151 167.906 185.92 165.09 187.033C164.631 187.23 164.173 186.902 164.173 186.575C164.173 186.444 164.238 186.313 164.5 186.182C167.12 185.134 169.282 183.365 171.968 182.513C174.719 181.662 177.142 182.579 179.762 182.644C180.417 182.644 181.072 182.644 181.727 182.513C182.186 182.448 182.448 182.71 182.448 182.972Z" fill="black"/>
<path d="M197.186 267.731C192.273 270.22 186.443 271.923 183.954 276.377C183.692 276.967 182.644 276.443 182.972 275.919C185.526 271.268 191.552 269.499 196.531 266.879C197.186 266.552 197.841 267.403 197.186 267.731Z" fill="black"/>
<path d="M198.299 271.398C195.679 272.708 192.928 273.953 190.57 275.59C189.98 275.983 189.194 275.328 189.718 274.935C192.273 273.298 194.959 271.922 197.71 270.612C198.365 270.219 199.02 271.071 198.299 271.398Z" fill="black"/>
<path d="M198.496 238.976C194.304 242.12 193.78 246.443 194.107 250.766C194.107 251.093 194.173 251.421 194.173 251.814C194.369 253.517 194.697 255.22 194.893 256.792C194.959 257.381 193.78 257.381 193.714 256.792C192.863 250.569 191.29 243.102 197.644 238.321C197.906 238.059 198.365 238.19 198.496 238.452C198.496 238.452 198.496 238.452 198.496 238.517C198.692 238.583 198.692 238.779 198.496 238.976Z" fill="black"/>
<path d="M200.002 273.168C197.448 274.805 195.024 276.705 192.535 278.408C191.945 278.801 191.159 278.146 191.683 277.753C194.238 276.05 196.596 274.216 199.151 272.513C199.806 272.12 200.657 272.84 200.002 273.168Z" fill="black"/>
<path d="M237.469 228.036C233.67 227.054 231.115 224.63 227.054 223.844C222.797 223.124 218.801 222.272 215.067 220.438C214.478 220.176 215.002 219.325 215.722 219.652C219.849 221.683 224.172 222.141 228.692 223.189C232.098 224.041 234.39 226.268 237.731 227.119C238.517 227.316 238.189 228.233 237.469 228.036Z" fill="black"/>
<path d="M238.386 187.819C236.552 187.819 234.718 187.688 232.884 187.557C231.967 187.491 231.115 187.426 230.198 187.426C229.019 187.36 227.775 187.36 226.596 187.36C225.81 187.36 225.81 186.443 226.596 186.378C227.709 186.378 228.888 186.378 230.002 186.443C230.984 186.509 231.967 186.574 232.949 186.64C234.783 186.771 236.552 186.902 238.386 186.902C239.172 186.902 239.172 187.884 238.386 187.819Z" fill="black"/>
<path d="M241.726 183.693C241.726 183.889 241.595 184.02 241.399 184.151C241.268 184.217 241.137 184.217 241.006 184.151C238.189 183.627 235.897 182.71 233.277 182.71C232.425 182.71 231.443 182.776 230.46 183.038C230.133 183.103 229.805 183.169 229.412 183.3C227.513 183.758 225.613 184.151 223.648 184.348C223.321 184.348 223.124 184.217 223.059 183.955C223.059 183.889 223.059 183.889 223.059 183.824C223.059 183.758 223.124 183.693 223.124 183.627C223.124 183.562 223.124 183.562 223.19 183.562L223.255 183.496C223.321 183.431 223.386 183.431 223.452 183.431C223.517 183.431 223.517 183.431 223.583 183.431C225.417 183.3 227.316 182.71 229.216 182.252C230.591 181.924 231.967 181.662 233.342 181.662C233.473 181.662 233.604 181.662 233.735 181.662C236.486 181.728 238.713 182.776 241.333 183.3C241.595 183.365 241.726 183.496 241.726 183.693Z" fill="black"/>
<path d="M246.508 153.102C246.443 153.168 246.377 153.168 246.377 153.233C243.495 154.674 240.613 154.412 237.796 153.626C234.98 152.84 232.163 151.661 229.347 151.203C229.085 151.137 228.954 151.006 228.954 150.81C228.954 150.548 229.216 150.155 229.674 150.286C232.294 150.744 234.98 151.923 237.665 152.644C240.416 153.43 243.102 153.692 245.722 152.382C246.312 152.12 246.901 152.709 246.508 153.102Z" fill="black"/>
<path d="M365.131 194.107V194.762C364.869 270.678 315.088 334.935 246.508 356.878C246.508 354.127 246.508 351.376 246.443 348.559C246.246 335.983 248.997 322.752 247.032 310.306C245.395 300.023 241.595 290.067 240.22 279.783C238.517 266.29 242.578 253.058 244.936 239.762C247.556 224.631 249.128 209.631 249.587 194.369C249.849 179.959 252.207 165.548 252.993 151.138C253.189 148.06 253.386 144.916 253.582 141.771C253.779 137.841 253.91 133.911 253.517 130.047C252.927 124.61 247.753 105.353 234.783 118.387C227.251 125.986 227.054 135.942 226.203 145.636C225.81 149.697 225.351 153.693 224.172 157.426C219.522 171.575 217.622 185.199 215.788 199.675C214.936 206.225 215.198 218.277 208.648 223.386C206.814 224.827 202.295 228.757 198.561 229.281C194.369 230.984 190.57 233.211 186.509 235.111C185.854 235.438 185.264 234.587 185.919 234.325C189.456 232.622 192.862 230.657 196.465 229.085C196.4 229.019 196.269 229.019 196.203 228.954C191.88 226.989 192.338 218.212 192.207 214.936C191.88 208.648 192.666 202.033 192.469 195.679C192.404 192.928 192.142 190.242 191.487 187.622C188.801 176.553 182.71 166.4 178.78 155.592C177.928 153.234 177.142 150.811 176.487 148.322C175.112 142.885 174.326 137.252 173.147 131.684C172.426 128.082 171.509 124.479 170.33 121.073C169.151 117.798 166.465 111.313 161.225 110.331C161.225 110.331 161.225 110.331 161.16 110.331C160.701 110.265 160.243 110.2 159.784 110.2C158.147 110.2 156.313 110.724 154.282 111.903C151.073 113.802 148.518 116.226 146.75 119.173C143.147 125.134 141.64 131.029 144.588 137.579C145.44 139.413 146.422 141.182 147.47 142.95C149.37 146.226 151.269 149.501 152.383 152.907C154.348 159.195 155.527 165.679 157.164 171.968C160.636 185.33 163.387 196.924 164.042 210.613C164.566 221.225 166.793 231.901 164.697 242.513C169.479 242.709 174.457 239.172 178.321 237.403C178.976 237.076 179.566 237.927 178.845 238.189C174.719 240.154 169.675 243.626 164.5 243.43C164.5 243.495 164.435 243.626 164.435 243.626C173.998 254.827 192.011 256.399 203.343 265.831C205.373 267.469 206.88 269.434 208.124 271.464C208.19 271.464 208.19 271.399 208.321 271.399C216.508 268.844 222.666 263.407 231.115 261.311C231.836 261.115 232.163 262.032 231.377 262.228C222.993 264.324 216.836 269.696 208.648 272.316C210.941 275.984 212.775 279.914 215.657 283.254C216.705 284.499 217.819 285.678 218.998 286.857C222.862 287.184 226.858 285.35 229.936 283.778C230.657 283.451 231.181 284.302 230.526 284.564C227.513 286.071 223.648 287.839 219.915 287.839C224.696 292.621 229.936 297.01 235.635 301.202C236.159 301.595 235.307 302.25 234.783 301.857C227.513 296.551 219.587 290.591 214.609 283.778C209.238 276.311 205.897 267.207 196.334 262.294C184.937 256.53 171.509 253.517 163.518 244.347H163.452C163.059 244.15 162.732 244.085 162.339 243.888C155.199 239.237 148.518 233.408 137.972 235.766C135.483 236.29 133.191 237.403 131.291 239.041C124.283 245.264 123.038 254.172 128.213 261.377C128.278 261.442 128.409 261.442 128.475 261.442C136.073 268.779 147.077 271.53 156.444 276.966C162.47 280.438 167.841 284.826 172.033 289.805C178.19 297.01 185.723 302.905 192.207 309.782C198.692 316.726 201.116 323.931 205.766 331.529C206.094 332.053 205.046 332.577 204.718 331.987C199.085 322.686 195.679 313.909 186.64 306.049C186.378 305.852 186.116 305.59 185.919 305.328C187.884 311.027 185.723 316.202 181.203 319.477C181.4 319.673 181.465 319.804 181.4 320.066C174.915 330.35 177.928 341.813 175.177 352.751C174.981 353.341 173.933 353.079 173.998 352.489C176.749 341.747 173.998 330.481 180.024 320.328C178.714 321.049 177.404 321.704 175.898 322.162C176.029 322.293 176.029 322.424 175.898 322.621C169.217 331.136 166.531 341.092 161.749 350.262C161.487 350.786 160.374 350.524 160.636 350C165.417 340.83 168.103 331.005 174.588 322.49C170.461 323.472 165.614 323.341 160.898 321.507C160.832 321.442 160.832 321.442 160.832 321.442C160.439 324.324 158.998 326.878 155.592 328.712C150.287 331.463 142.033 326.944 138.955 323.8C135.68 320.525 132.994 317.053 130.505 313.451C127.099 313.909 123.693 313.975 120.221 313.975C119.435 313.975 119.435 312.992 120.221 312.992C123.431 312.992 126.706 312.926 129.916 312.533C127.951 309.651 126.117 306.704 124.217 303.756C121.925 303.494 119.894 302.577 117.667 301.922C117.012 301.726 117.339 300.809 117.994 301.005C119.828 301.529 121.663 302.381 123.562 302.708C120.615 298.254 117.405 293.866 113.475 289.805C113.016 289.346 113.868 288.625 114.326 289.149C118.649 293.473 121.925 298.123 125.069 302.905C125.462 302.97 125.658 303.298 125.462 303.494C126.313 304.804 127.165 306.18 128.016 307.555C128.868 308.865 129.85 310.568 130.898 312.337H131.16C131.881 312.206 132.208 313.057 131.488 313.188C135.942 320.263 142.557 328.843 151.597 328.254C171.706 326.944 151.531 300.285 148.78 295.11C145.374 288.626 143.081 281.813 138.693 275.787C138.3 275.263 139.282 274.739 139.741 275.263C144.195 281.42 145.767 288.298 149.828 294.586C153.169 299.892 157.426 305.197 159.391 311.027C160.374 313.975 161.225 317.381 160.963 320.525C161.16 320.459 161.356 320.394 161.553 320.459C175.701 325.896 189.98 315.809 184.347 303.953C184.216 303.756 184.282 303.691 184.347 303.625C179.566 299.237 175.505 294.783 171.182 290.001C164.697 282.927 156.902 277.228 147.143 273.102C139.872 270.023 133.191 267.076 127.82 261.901C124.938 262.883 122.121 264.324 119.435 266.028C117.929 267.207 116.357 268.386 114.85 269.565C113.54 270.678 112.427 271.923 111.444 273.102C105.811 280.307 109.152 286.791 111.837 293.997C115.178 303.036 114.13 312.14 118.256 321.18C122.58 330.612 123.038 340.11 124.414 349.935C65.2658 323.21 24.0655 263.604 24 194.435C24 193.976 24 193.518 24 193.059C24.1965 174.588 27.2751 156.902 32.9082 140.265C70.4405 109.283 122.973 90.0254 181.138 90.0254C260.787 90.0254 329.957 126.117 364.542 179.042C364.869 183.954 365.131 188.998 365.131 194.107Z" fill="black"/>
<path d="M170.33 149.697C170.134 149.894 169.872 150.09 169.61 150.287C166.793 152.383 161.946 153.562 158.147 153.365C157.885 153.365 157.623 153.3 157.361 153.3C156.64 153.234 156.64 152.317 157.361 152.317C157.492 152.317 157.557 152.317 157.688 152.317C161.684 152.645 166.924 151.4 169.544 148.977C169.675 148.911 169.741 148.846 169.872 148.846C170.265 148.846 170.723 149.304 170.33 149.697Z" fill="black"/>
<path d="M178.649 186.772C178.583 186.772 178.583 186.772 178.518 186.772C174.522 186.706 170.788 187.951 167.055 188.606C166.334 188.737 166.007 187.82 166.727 187.689C168.168 187.427 169.544 187.099 170.985 186.772C172.426 186.444 173.802 186.182 175.308 185.986C176.356 185.855 177.47 185.789 178.518 185.789C178.649 185.789 178.714 185.789 178.78 185.855C179.238 186.051 179.173 186.641 178.649 186.772Z" fill="black"/>
<path d="M182.448 182.972C182.448 183.169 182.317 183.3 182.055 183.365C181.269 183.562 180.352 183.496 179.5 183.431C177.339 183.234 175.046 182.514 173.147 183.103C170.133 184.086 167.906 185.854 165.09 186.968C164.631 187.164 164.238 186.837 164.173 186.575C164.173 186.444 164.238 186.247 164.5 186.116C167.12 185.068 169.282 183.3 171.968 182.448C174.719 181.597 177.142 182.514 179.762 182.579C180.417 182.579 181.072 182.579 181.727 182.448C182.186 182.383 182.448 182.71 182.448 182.972Z" fill="black"/>
<path d="M198.561 238.975C194.304 242.119 193.78 246.442 194.107 250.766C194.107 251.093 194.173 251.421 194.173 251.814C194.369 253.517 194.697 255.22 194.893 256.792C194.959 257.381 193.78 257.381 193.714 256.792C192.863 250.569 191.29 243.102 197.644 238.32C197.972 238.124 198.365 238.189 198.496 238.451C198.496 238.451 198.496 238.451 198.496 238.517C198.692 238.648 198.692 238.779 198.561 238.975Z" fill="black"/>
<path d="M237.469 228.036C233.67 227.054 231.115 224.63 227.054 223.844C222.797 223.124 218.801 222.272 215.067 220.438C214.478 220.176 215.002 219.325 215.722 219.652C219.849 221.683 224.172 222.141 228.692 223.189C232.098 224.041 234.39 226.268 237.731 227.119C238.517 227.316 238.189 228.233 237.469 228.036Z" fill="black"/>
<path d="M238.386 187.819C236.552 187.819 234.718 187.688 232.884 187.557C231.967 187.491 231.115 187.426 230.198 187.426C229.019 187.36 227.775 187.36 226.596 187.36C225.81 187.36 225.81 186.443 226.596 186.378C227.709 186.378 228.888 186.378 230.002 186.443C230.984 186.509 231.967 186.574 232.949 186.64C234.783 186.771 236.552 186.902 238.386 186.902C239.172 186.902 239.172 187.884 238.386 187.819Z" fill="black"/>
<path d="M241.726 183.693C241.726 183.889 241.595 184.086 241.399 184.151C241.268 184.217 241.137 184.217 241.006 184.151C238.189 183.627 235.897 182.71 233.277 182.71C232.425 182.71 231.443 182.776 230.46 183.038C230.133 183.103 229.805 183.169 229.412 183.3C227.513 183.758 225.613 184.151 223.648 184.348C223.321 184.348 223.124 184.151 223.059 183.955C223.059 183.889 223.059 183.889 223.059 183.824C223.059 183.758 223.124 183.693 223.124 183.627C223.124 183.562 223.124 183.562 223.19 183.562L223.255 183.496C223.321 183.431 223.386 183.431 223.452 183.431C223.517 183.431 223.517 183.431 223.583 183.431C225.417 183.3 227.316 182.71 229.216 182.252C230.591 181.924 231.967 181.662 233.342 181.662C233.473 181.662 233.604 181.662 233.735 181.662C236.486 181.728 238.713 182.776 241.333 183.3C241.595 183.365 241.726 183.496 241.726 183.693Z" fill="black"/>
<path d="M246.508 153.103C246.443 153.169 246.377 153.234 246.312 153.3C243.495 154.741 240.678 154.413 237.796 153.693C234.98 152.907 232.163 151.728 229.347 151.269C229.019 151.204 228.954 151.007 228.954 150.811C228.954 150.549 229.281 150.221 229.674 150.352C232.294 150.745 234.98 151.99 237.665 152.71C240.351 153.496 243.102 153.824 245.722 152.448C246.246 152.186 246.77 152.71 246.508 153.103Z" fill="black"/>
<path d="M365.131 194.107V194.762C364.869 270.678 315.088 334.935 246.508 356.878C246.508 354.127 246.508 351.376 246.443 348.559C246.246 335.983 248.997 322.752 247.032 310.306C245.395 300.023 241.595 290.066 240.22 279.783C238.517 266.289 242.578 253.058 244.936 239.761C247.556 224.631 249.128 209.631 249.587 194.369C249.849 179.959 252.207 165.548 252.993 151.138C253.189 148.06 253.386 144.915 253.582 141.771C253.779 137.841 253.91 133.911 253.517 130.047C252.927 124.61 247.753 105.353 234.783 118.387C227.251 125.986 227.054 135.942 226.203 145.636C225.81 149.697 225.351 153.693 224.172 157.426C219.522 171.575 217.622 185.199 215.788 199.675C214.936 206.225 215.198 218.277 208.648 223.386C206.814 224.827 202.295 228.757 198.561 229.281C194.369 230.984 190.57 233.211 186.509 235.111C185.854 235.438 185.264 234.587 185.919 234.325C189.456 232.622 192.862 230.657 196.465 229.085C196.4 229.019 196.269 229.019 196.203 228.954C191.88 226.989 192.338 218.211 192.207 214.936C191.88 208.648 192.666 202.033 192.469 195.679C192.404 192.928 192.142 190.242 191.487 187.622C188.801 176.553 182.71 166.4 178.78 155.592C177.928 153.234 177.142 150.811 176.487 148.322C175.112 142.885 174.326 137.252 173.147 131.684C172.426 128.082 171.509 124.479 170.33 121.073C169.151 117.798 166.465 111.313 161.225 110.331C161.225 110.331 161.225 110.331 161.16 110.331C160.701 110.265 160.243 110.2 159.784 110.2C158.147 110.2 156.313 110.724 154.282 111.903C151.073 113.802 148.518 116.226 146.75 119.173C143.147 125.134 141.64 131.029 144.588 137.579C145.44 139.413 146.422 141.182 147.47 142.95C149.37 146.226 151.269 149.501 152.383 152.907C154.348 159.195 155.527 165.679 157.164 171.968C160.636 185.33 163.387 196.924 164.042 210.613C164.566 221.225 166.793 231.901 164.697 242.512C169.479 242.709 174.457 239.172 178.321 237.403C178.976 237.076 179.566 237.927 178.845 238.189C174.719 240.154 169.675 243.626 164.5 243.43C164.5 243.495 164.435 243.626 164.435 243.626C173.998 254.827 192.011 256.399 203.343 265.831C205.373 267.469 206.88 269.434 208.124 271.464C208.19 271.464 208.19 271.399 208.321 271.399C216.508 268.844 222.666 263.407 231.115 261.311C231.836 261.115 232.163 262.032 231.377 262.228C222.993 264.324 216.836 269.696 208.648 272.316C210.941 275.984 212.775 279.914 215.657 283.254C216.705 284.499 217.819 285.678 218.998 286.857C222.862 287.184 226.858 285.35 229.936 283.778C230.657 283.451 231.181 284.302 230.526 284.564C227.513 286.071 223.648 287.839 219.915 287.839C224.696 292.621 229.936 297.01 235.635 301.202C236.159 301.595 235.307 302.25 234.783 301.857C227.513 296.551 219.587 290.59 214.609 283.778C209.238 276.311 205.897 267.206 196.334 262.294C184.937 256.53 171.509 253.517 163.518 244.347H163.452C163.059 244.15 162.732 244.085 162.339 243.888C155.199 239.237 148.518 233.408 137.972 235.766C135.483 236.29 133.191 237.403 131.291 239.041C124.283 245.264 123.038 254.172 128.213 261.377C128.278 261.442 128.409 261.442 128.475 261.442C136.073 268.779 147.077 271.53 156.444 276.966C162.47 280.438 167.841 284.826 172.033 289.804C178.19 297.01 185.723 302.905 192.207 309.782C198.692 316.725 201.116 323.931 205.766 331.529C206.094 332.053 205.046 332.577 204.718 331.987C199.085 322.686 195.679 313.909 186.64 306.049C186.378 305.852 186.116 305.59 185.919 305.328C187.884 311.027 185.723 316.201 181.203 319.477C181.4 319.673 181.465 319.804 181.4 320.066C174.915 330.35 177.928 341.813 175.177 352.751C174.981 353.341 173.933 353.079 173.998 352.489C176.749 341.747 173.998 330.481 180.024 320.328C178.714 321.049 177.404 321.704 175.898 322.162C176.029 322.293 176.029 322.424 175.898 322.621C169.217 331.136 166.531 341.092 161.749 350.262C161.487 350.786 160.374 350.524 160.636 350C165.417 340.83 168.103 331.005 174.588 322.49C170.461 323.472 165.614 323.341 160.898 321.507C160.832 321.442 160.832 321.442 160.832 321.442C160.439 324.324 158.998 326.878 155.592 328.712C150.287 331.463 142.033 326.944 138.955 323.8C135.68 320.525 132.994 317.053 130.505 313.45C127.099 313.909 123.693 313.974 120.221 313.974C119.435 313.974 119.435 312.992 120.221 312.992C123.431 312.992 126.706 312.926 129.916 312.533C127.951 309.651 126.117 306.704 124.217 303.756C121.925 303.494 119.894 302.577 117.667 301.922C117.012 301.726 117.339 300.809 117.994 301.005C119.828 301.529 121.663 302.381 123.562 302.708C120.615 298.254 117.405 293.866 113.475 289.804C113.016 289.346 113.868 288.625 114.326 289.149C118.649 293.473 121.925 298.123 125.069 302.905C125.462 302.97 125.658 303.298 125.462 303.494C126.313 304.804 127.165 306.18 128.016 307.555C128.868 308.865 129.85 310.568 130.898 312.337H131.16C131.881 312.206 132.208 313.057 131.488 313.188C135.942 320.263 142.557 328.843 151.597 328.254C171.706 326.944 151.531 300.285 148.78 295.11C145.374 288.625 143.081 281.813 138.693 275.787C138.3 275.263 139.282 274.739 139.741 275.263C144.195 281.42 145.767 288.298 149.828 294.586C153.169 299.892 157.426 305.197 159.391 311.027C160.374 313.974 161.225 317.381 160.963 320.525C161.16 320.459 161.356 320.394 161.553 320.459C175.701 325.896 189.98 315.809 184.347 303.953C184.216 303.756 184.282 303.691 184.347 303.625C179.566 299.237 175.505 294.783 171.182 290.001C164.697 282.927 156.902 277.228 147.143 273.102C139.872 270.023 133.191 267.075 127.82 261.901C124.938 262.883 122.121 264.324 119.435 266.027C117.929 267.206 116.357 268.386 114.85 269.565C113.54 270.678 112.427 271.923 111.444 273.102C105.811 280.307 109.152 286.791 111.837 293.997C115.178 303.036 114.13 312.14 118.256 321.18C122.58 330.612 123.038 340.109 124.414 349.935C65.2658 323.21 24.0655 263.604 24 194.435C24 193.976 24 193.517 24 193.059C24.1965 174.588 27.2751 156.902 32.9082 140.265C55.6372 72.6675 119.435 24 194.631 24C283.516 24 356.55 92.0559 364.542 179.042C364.869 183.954 365.131 188.998 365.131 194.107Z" fill="black"/>
<path d="M261.508 138.693C259.739 142.623 259.87 154.61 258.102 153.693C257.054 153.103 255.22 147.535 253.582 141.837C252.731 138.824 251.945 135.811 251.421 133.453C251.093 132.274 249.652 125.789 248.146 125.92C247.425 125.92 246.967 127.558 245.46 136.859C244.15 145.112 236.683 134.435 236.486 135.811C235.831 140.396 236.945 147.273 237.665 152.645V152.71C237.731 153.038 237.731 153.3 237.797 153.627C238.321 157.754 238.583 160.701 237.403 160.505C234.98 160.243 234.128 172.229 233.342 181.596C233.342 181.989 233.277 182.317 233.277 182.71C233.146 184.085 233.08 185.395 232.949 186.574C232.884 186.902 232.884 187.229 232.884 187.491C232.556 190.701 232.229 192.731 231.705 192.338C231.246 191.88 230.722 189.98 230.198 187.36C230.133 187.033 230.067 186.705 230.002 186.378C229.805 185.395 229.609 184.347 229.412 183.299C229.347 182.972 229.281 182.579 229.216 182.251C228.037 174.915 226.923 165.81 226.727 162.863C226.399 158.081 226.923 152.252 226.137 145.636C225.875 143.343 225.417 140.985 224.762 138.562C223.124 132.994 223.255 129.981 222.076 129.85C220.439 129.719 218.212 134.37 217.295 138.431C216.574 141.902 217.164 143.212 217.295 149.369C217.426 152.383 217.622 157.295 216.836 163.19C216.247 167.71 215.526 175.636 214.282 179.697C212.971 184.806 213.823 202.491 212.775 202.622C210.417 202.95 208.321 179.042 207.076 174.587C206.159 171.312 206.028 160.046 204.391 151.793C203.801 149.107 200.199 149.828 199.937 149.828C199.02 149.828 193.649 161.815 194.435 173.801C195.024 182.775 195.941 190.177 195.614 197.054C195.548 199.478 194.173 197.251 192.404 195.679C190.898 194.303 189.129 193.386 187.688 196.334C185.723 200.395 192.011 222.403 188.408 223.648C185.592 224.565 183.496 209.827 181.269 207.6C178.714 205.177 177.863 207.6 177.863 196.792C177.863 192.142 178.19 189.063 178.649 186.771C178.714 186.443 178.78 186.181 178.845 185.854C179.042 184.937 179.238 184.216 179.435 183.496V183.43C179.5 183.168 179.566 182.906 179.631 182.644V182.579C180.221 180.614 180.745 178.911 180.81 176.094C181.138 168.168 180.352 165.614 179.042 160.046C178.976 159.719 178.845 158.016 178.649 155.592C175.963 149.828 174.647 150.123 174.647 150.123H174.258C171.533 150.123 170.277 151.727 170.277 151.727L170.396 151.072C168.693 160.635 165.942 169.151 163.911 169.544C161.815 169.871 162.142 155.461 160.898 154.086C160.177 153.3 156.968 153.692 156.64 153.037C156.64 153.037 156.444 152.775 156.313 151.727C155.854 145.898 156.509 142.688 155.33 141.64C154.02 140.461 153.562 131.422 151.924 132.208C150.418 132.732 149.108 138.758 147.339 142.885C146.75 144.195 146.16 145.308 145.505 146.029C143.868 147.666 142.951 166.858 141.51 166.727C138.365 166.4 136.466 141.706 136.269 140.789C135.549 137.514 136.269 137.055 135.221 132.994C134.632 130.309 137.776 124.282 136.269 122.514C134.042 119.959 128.54 124.741 127.296 122.514C126.248 120.549 126.706 118.322 127.623 114.719C127.951 111.903 128.278 110.527 129.457 109.217C129.588 109.086 132.143 106.532 135.418 106.663C137.776 106.794 137.972 108.169 141.116 108.89C143.802 109.479 145.898 109.021 146.619 108.89C149.894 108.3 150.025 106.794 152.121 106.925C154.086 107.056 153.889 108.3 157.361 109.479C158.016 109.741 158.802 110.003 159.653 110.134C160.112 110.2 160.57 110.265 161.029 110.265C161.029 110.265 161.029 110.265 161.094 110.265C161.487 110.265 161.88 110.265 162.273 110.2C163.321 110.069 163.911 109.741 165.68 109.021C169.086 107.514 170.92 106.794 171.968 106.466C175.112 105.746 177.797 106.597 179.107 106.925C182.382 107.973 182.71 109.152 185.526 109.938C187.164 110.396 188.67 110.396 192.666 109.938C198.037 109.348 200.133 108.562 204.325 107.973C210.875 106.925 214.02 106.335 217.033 106.925C221.356 107.842 221.028 109.348 227.185 111.706C231.836 113.475 235.242 114.719 239.434 113.933C243.888 113.016 244.478 110.658 249.456 110.2C251.093 110.069 254.499 109.741 256.923 111.706C259.15 113.475 258.888 115.767 260.198 124.02C261.835 134.239 263.014 135.745 261.508 138.693Z" fill="#CCFF1B"/>
</svg>
